<svg xmlns="http://www.w3.org/2000/svg" width="800" height="239"><g style="fill:#2449a4;fill-opacity:1"><g style="fill:#2449a4;fill-opacity:1"><path d="M0 0c.009.604.066 1.074.173 1.411.106.338.289.701.547 1.092.24.334.508.623.803.868.295.245.706.527 1.232.847.369.227.66.534.872.921.213.387.319.748.319 1.081 0 .347-.05.627-.152.836-.102.21-.315.314-.638.314a.639.639 0 0 1-.318-.096.756.756 0 0 1-.263-.245c-.064-.078-.125-.23-.179-.458a2.67 2.67 0 0 1-.083-.638H.152c-.018.454.033.838.153 1.15.12.313.327.613.623.905.267.277.579.49.934.639.356.149.769.224 1.24.224.516 0 .961-.061 1.335-.181.375-.121.704-.316.991-.586a2.29 2.29 0 0 0 .574-.836c.115-.302.173-.69.173-1.166a2.22 2.22 0 0 0-.117-.772 3.175 3.175 0 0 0-.41-.719 3.853 3.853 0 0 0-.636-.682 9.08 9.08 0 0 0-.762-.564 8.059 8.059 0 0 1-.685-.501 8.106 8.106 0 0 1-.492-.426 2.52 2.52 0 0 1-.359-.469c-.13-.206-.203-.369-.222-.489h3.766V0Z" style="fill:#2449a4;fill-opacity:1;fill-rule:nonzero;stroke:none" transform="matrix(24.18073 0 0 -24.18073 637.56 226.368)"/></g><path d="m1338.142 403.513-125.893-158.37 121.31-146.467H1248.1L1132.62 243.65V98.676h-65.063v304.837h65.063V246.778l113.17 156.735z" style="fill:#2449a4;fill-opacity:1;fill-rule:nonzero;stroke:none;stroke-width:35.53288651" transform="matrix(.68052 0 0 .68052 -713.35 -47.993)"/><g style="fill:#2449a4;fill-opacity:1"><path d="M0 0c.531 0 2.793-.341 2.793-2.589 0-2.377-2.281-2.634-2.281-2.634h-5.334v1.39l4.291-.002C.713-3.835.701-2.648.701-2.648.701-1.347-.77-1.399-.77-1.399h-1.643c-.754 0-2.698.272-2.698 2.281 0 2.415 2.41 2.474 2.41 2.474h4.884V1.984l-4.01-.003c-1.295 0-1.275-1.005-1.275-1.005s.012-.981 1.134-.981z" style="fill:#2449a4;fill-opacity:1;fill-rule:nonzero;stroke:none" transform="matrix(24.18073 0 0 -24.18073 511.226 100.316)"/></g><g style="fill:#2449a4;fill-opacity:1"><path d="M0 0c1.29 0 2.463.944 2.463 2.396 0 1.657-1.225 2.173-1.225 2.173s.973.334.881 1.822C1.987 8.544-.444 8.578-.444 8.578h-4.719V.004L0 0m-3.43 7.187h2.363S.216 7.244.216 6.178c0-.917-.807-.978-1.069-.995H-3.43Zm2.153-5.791H-3.43v2.413l2.656-.001S.567 3.758.567 2.616c0-1.14-1.005-1.22-1.844-1.22" style="fill:#2449a4;fill-opacity:1;fill-rule:nonzero;stroke:none" transform="matrix(24.18073 0 0 -24.18073 325.997 226.605)"/></g></g></svg>