<svg xmlns="http://www.w3.org/2000/svg" viewBox="0 0 1000 287.6"><path d="M0 287.6h82.45V79.5h47.17v208.1h82.12V79.5h47.17v208.1H341V68.27q0-17.47-5.28-30.17a56.38 56.38 0 0 0-15.17-21.27A66 66 0 0 0 296 4.13 117.58 117.58 0 0 0 263.52 0H77.5A117.55 117.55 0 0 0 45 4.13a63 63 0 0 0-24.25 12.7A54.84 54.84 0 0 0 5.27 38.1Q0 50.81 0 68.27zM998.68 0H795.85Q777.37 0 763 4.79t-23.88 13.36a57.55 57.55 0 0 0-14.51 21.6 77.09 77.09 0 0 0-5 28.2v152.7a76.67 76.67 0 0 0 4.5 26.35 55.28 55.28 0 0 0 13.69 21.11q9.23 9.23 23.91 14.34t35.46 5.11H1000v-78.12H804.76V78.83h193.92zM696.57 210.76q0-20.44-7.91-35.13a65.06 65.06 0 0 0-22.1-23.91q-14.19-9.24-33.64-13.52a196.11 196.11 0 0 0-42.22-4.29 148.3 148.3 0 0 0 31.66-3.46 91.65 91.65 0 0 0 28.7-11.38 62.31 62.31 0 0 0 20.45-20q7.9-12.36 7.91-30.17 0-17.49-6.43-30.35a57.21 57.21 0 0 0-18.63-21.44q-12.21-8.58-29.52-12.7A180.14 180.14 0 0 0 586.09 0h-201.2v287.6h202.84a201.6 201.6 0 0 0 41.27-4.12 109.56 109.56 0 0 0 35-13.36 71.6 71.6 0 0 0 23.75-23.9q8.9-14.68 8.9-35.46zm-105.87-1.65h-122v-130h122z"/><path fill="red" d="M468.67 79.16H590.7V209.1H468.67z"/></svg>