<svg xmlns="http://www.w3.org/2000/svg" width="800" height="252"><g style="fill:#2449a4;fill-opacity:1"><g style="fill:#2449a4;fill-opacity:1"><path d="M0 0h-2.021v1.31c.665.007 1.207.144 1.626.41.42.266.635.655.644 1.166H2.16v-8.627H0Z" style="fill:#2449a4;fill-opacity:1;fill-rule:nonzero;stroke:none" transform="matrix(26.20784 0 0 -26.20784 731.597 88.878)"/></g><path d="m825.522 536.642-3.543 4.458 3.414 4.122h-2.405l-3.25-4.08v4.08h-1.83v-8.58h1.83v4.411l3.185-4.41z" style="fill:#2449a4;fill-opacity:1;fill-rule:nonzero;stroke:none" transform="matrix(26.20784 0 0 -26.20784 -21422.437 14303.84)"/><g style="fill:#2449a4;fill-opacity:1"><path d="M0 0c.53 0 2.792-.341 2.792-2.589 0-2.377-2.281-2.634-2.281-2.634h-5.334v1.39l4.291-.002C.713-3.835.7-2.648.7-2.648.7-1.346-.771-1.4-.771-1.4h-1.643c-.754 0-2.698.273-2.698 2.282 0 2.415 2.41 2.474 2.41 2.474h4.884V1.985l-4.01-.004c-1.295 0-1.275-1.005-1.275-1.005s.012-.981 1.134-.981z" style="fill:#2449a4;fill-opacity:1;fill-rule:nonzero;stroke:none" transform="matrix(26.20784 0 0 -26.20784 553.006 102.719)"/></g><g style="fill:#2449a4;fill-opacity:1"><path d="M0 0c1.29 0 2.462.945 2.462 2.397 0 1.656-1.225 2.173-1.225 2.173s.973.334.881 1.821C1.986 8.545-.445 8.579-.445 8.579h-4.719V.004L0 0m-3.431 7.187h2.363S.216 7.245.216 6.178c0-.917-.808-.977-1.069-.995h-2.578zm2.153-5.79h-2.153v2.412l2.656-.001S.566 3.759.566 2.617c0-1.14-1.005-1.22-1.844-1.22" style="fill:#2449a4;fill-opacity:1;fill-rule:nonzero;stroke:none" transform="matrix(26.20784 0 0 -26.20784 352.25 239.605)"/></g></g></svg>