<svg xmlns="http://www.w3.org/2000/svg" xmlns:xlink="http://www.w3.org/1999/xlink" width="415.15" height="119.4" viewBox="205.43741616888838 453.3923477474119 419.1501532606719 123.40461466133581"><defs><path id="a" d="M451.71 510.07v31.18h-50.63v-53.98h50.63v22.69c17.64.01 36.87-7.16 36.87-26.93 0-19.36-14.91-28.29-38.69-28.63-.12-.01-83.28 0-83.52 0v119.4h84.22c23.85 0 45.14-8.72 45.14-31.8 0-22.81-18.78-31.93-44.02-31.93m88.9 31.37v-54.31h80.5v-32.72h-84.28c-20.65 0-31.55 10.98-31.55 28.19v63.48c0 15.66 9.08 27.72 32.14 27.72h84.17v-32.36h-80.98ZM315.88 454.4h-77.24c-20.02 0-32.2 9.27-32.2 28.42v90.98h34.17v-86.44h19.6v86.44h34.09v-86.44h19.61v86.44h34.17v-90.98c0-19.15-12.2-28.42-32.2-28.42"/></defs><use xlink:href="#a" fill="#42515e"/><use xlink:href="#a" fill-opacity="0" stroke="#000" stroke-opacity="0"/></svg>