<svg xmlns="http://www.w3.org/2000/svg" width="512" height="209.134" viewBox="0 0 512 209.134"><path fill="#0c78bf" d="M105.363 86.905c-10.157-4.03-19.025-6.772-28.216-10.803-7.739-3.386-19.67-6.933-23.217-14.027-2.58-3.87-2.902-9.997-.162-14.027 8.707-10.803 24.024-11.126 35.633-9.997 8.707.806 17.413 2.741 25.959 5.805 11.286 3.87 20.315 7.416 30.473 11.125V15.8c-16.93-7.256-33.376-12.415-50.789-14.672C87.79.645 81.501 0 75.051 0c-8.868.161-17.574 1.29-26.12 3.225-11.93 3.063-23.7 8.223-33.375 17.574C7.494 28.377 1.206 39.986.24 52.885-.567 64.01.561 75.78 5.237 85.454c3.225 7.578 8.868 12.899 14.511 17.252 8.546 6.61 17.736 12.254 27.249 16.446 7.9 4.353 16.93 5.965 24.346 9.351 9.029 3.547 18.058 6.933 25.152 12.254 2.741 2.096 4.999 5.16 5.966 9.029 1.451 4.676-.323 9.996-2.741 13.705-8.868 9.835-23.863 9.19-34.988 8.707-10.48-1.613-22.572-4.354-30.634-8.546-10.641-4.676-22.25-13.544-29.828-17.413v45.629c10.641 4.515 26.28 10.48 30.795 11.77 5.805 1.935 10.32 2.58 18.381 4.03 13.06 1.452 26.442 2.258 39.34.323 9.997-1.29 20.316-2.74 29.668-8.061 9.19-4.676 18.058-11.448 24.507-21.283 5.482-9.19 8.384-20.8 8.223-32.247-.322-11.931-3.547-24.185-10.48-32.891-11.125-11.61-25.797-20.316-39.34-26.604zM332.541 113.67c-6.127-7.256-14.027-11.61-21.766-15.156-3.064-1.29-6.127-2.258-9.19-3.225 6.449-3.386 12.575-8.062 17.574-14.027 4.192-4.676 7.094-10.964 8.706-17.736 1.774-7.417 1.129-14.189-.806-21.122-4.998-12.576-14.027-24.83-25.313-30.473-10.48-5.804-22.09-7.416-33.376-8.868-4.03-.483-8.061-.644-11.931-.483h-81.745v204.605h105.124c9.513-.322 18.703-1.612 27.893-4.514 8.546-2.902 16.285-8.707 22.734-16.124 4.353-4.998 8.062-10.802 10.48-17.574 1.451-5.16 3.386-12.576 3.547-18.703.484-7.256-.806-14.672-3.063-21.283-2.419-5.482-5.32-10.803-8.868-15.317zM224.998 40.147h29.506c9.674.806 18.058 7.417 21.444 15.64 2.258 5.482 1.29 12.254-1.773 16.93-4.354 7.416-13.06 12.092-21.122 11.124h-28.216V40.147Zm63.043 118.507c-8.062 10.964-22.09 11.286-34.343 11.125h-28.7v-48.37h36.278c11.125 1.451 24.83 6.127 28.377 15.64 2.741 6.771 1.612 15.317-1.612 21.605zM501.191 113.83c-10.802-11.93-25.636-20.637-39.018-26.925-10.158-4.03-19.026-6.772-28.216-10.803-7.74-3.386-19.67-6.933-23.218-14.027-2.58-3.87-2.902-9.997-.161-14.027 8.707-10.803 24.024-11.126 35.632-9.997 8.707.806 17.414 2.741 25.959 5.805 11.286 3.87 20.315 7.416 30.473 11.125V15.8c-16.93-7.256-33.375-12.415-50.788-14.672C444.598.645 438.31 0 431.86 0c-8.868.161-17.575 1.29-26.12 3.225-11.931 3.063-23.701 8.223-33.375 17.574-8.062 7.578-14.35 19.187-15.318 32.086-.806 11.125.323 22.895 4.999 32.569 3.224 7.578 8.867 12.899 14.51 17.252 8.546 6.61 17.736 12.254 27.25 16.446 7.9 4.353 16.929 5.965 24.345 9.351 9.03 3.547 18.058 6.933 25.153 12.254 2.74 2.096 4.998 5.16 5.965 9.029 1.451 4.676-.322 9.996-2.74 13.705-8.869 9.835-23.863 9.19-34.988 8.707-10.48-1.613-22.573-4.354-30.635-8.546-10.641-4.676-22.25-13.544-29.828-17.413v45.629c10.642 4.515 26.281 10.48 30.796 11.77 5.804 1.935 10.319 2.58 18.38 4.03 13.06 1.452 26.443 2.258 39.341.323 9.997-1.29 20.316-2.74 29.667-8.061 9.19-4.676 18.058-11.448 24.508-21.283 5.482-9.19 8.384-20.8 8.223-32.247-.645-11.77-3.87-24.024-10.803-32.569z"/></svg>