<svg xmlns="http://www.w3.org/2000/svg" width="1000.2437" height="340.16797" viewBox="0 0 1000.2437 340.16798"><circle cx="169.95154" cy="169.97324" r="170.20425" fill="#fff"/><g fill="red" style="fill:#e60012;fill-opacity:1"><path d="M170.204 0C76.091 0 0 76.091 0 170.204c0 36.444 11.614 70.485 31.237 98.118-16.82-42.851 11.214-111.734 70.886-165.398 68.482-61.675 152.983-79.696 188.225-40.049 35.643 39.248 8.811 121.346-60.072 183.42-58.87 52.864-130.156 73.689-171.405 52.864 30.036 25.63 68.882 41.25 111.333 41.25 94.113 0 170.204-76.092 170.204-170.205C340.408 76.091 264.318 0 170.204 0Z" style="fill:#e60012;fill-opacity:1" transform="translate(-.253 -.231)"/><path d="M201.041 196.235c27.633-24.83 38.446-58.07 24.03-74.489-14.418-16.02-48.86-8.81-76.493 16.02-27.633 24.83-38.446 58.069-24.029 74.489 14.418 16.019 48.459 8.81 76.492-16.02zm-51.662-42.05c19.624-17.621 43.653-22.427 53.665-11.213 10.412 11.213 2.803 34.841-16.82 52.062-19.624 17.621-43.653 22.427-53.665 11.213-10.412-10.812-2.803-34.44 16.82-52.062z" style="fill:#e60012;fill-opacity:1" transform="translate(-.253 -.231)"/><path d="M215.859 213.456c43.652-39.647 60.473-92.11 37.645-117.34-22.827-25.631-76.892-14.017-120.544 25.23-43.653 39.247-60.473 91.71-37.646 117.34 22.828 25.23 76.893 14.017 120.545-25.23zm-80.497-73.688c33.64-32.44 76.092-42.852 95.315-23.629 19.223 19.223 7.208 61.274-26.432 93.713-33.64 32.439-76.091 42.851-95.314 23.628-18.823-19.223-7.209-61.273 26.431-93.712z" style="fill:#e60012;fill-opacity:1" transform="translate(-.253 -.231)"/><path d="M231.878 229.876c59.672-53.665 82.5-125.751 51.262-160.593-31.238-34.842-105.327-19.623-164.998 34.041-60.072 54.065-82.9 125.75-51.262 160.993 31.238 34.842 105.327 19.624 164.998-34.441ZM117.341 120.545c51.662-46.456 114.938-59.672 142.17-29.636 26.833 30.036 7.21 91.71-44.453 137.765-51.261 46.456-114.938 59.672-141.77 29.636-26.832-30.036-7.209-91.71 44.053-137.765Z" style="fill:#e60012;fill-opacity:1" transform="translate(-.253 -.231)"/></g><path d="M11346 4988c-6-26-36-300-36-323 0-13-87-15-699-15h-698l-159-162c-597-610-1027-1314-1174-1921-116-476-83-958 90-1322 121-254 338-482 602-631 160-91 385-169 586-204 109-19 161-20 1012-20h897l277 604c152 332 276 607 276 610s-449 7-997 8l-998 3-95 32c-135 46-240 111-336 207-132 133-184 248-184 412 0 198 63 418 195 681 107 213 170 308 340 513 237 284 816 934 889 998 46 40 60 40 97 1 59-63 61-19-55-1029-58-508-103-927-100-931 3-5 214-9 469-9 433 0 464 1 469 18 3 9 125 568 271 1242s268 1233 271 1243c5 16-28 17-600 17h-606zm-4716-38c0-5 23-52 50-103 28-52 50-98 50-104 0-5-16-28-36-51l-35-42-632-2-631-3-267-2080c-146-1144-270-2104-274-2132l-7-53h1124c690 0 1150 4 1193 10 374 54 678 264 885 613 208 351 236 710 75 962-50 79-100 131-185 193-98 72-209 171-259 230l-40 48 81 68c132 113 315 294 416 411 226 264 356 518 414 808 30 153 32 471 4 622-37 197-134 442-224 560l-38 50-832 3c-539 1-832-1-832-8zm267-335c106-45 242-196 325-363 42-85 52-114 56-171 19-269-157-882-333-1157-87-136-251-271-378-313-107-35-130-36-162-8-44 37-44 99-1 377 129 829 248 1559 260 1586 8 17 29 38 48 47 42 21 137 22 185 2zm-416-2267c81-40 191-148 247-243 89-151 174-420 176-555 1-148-36-250-155-427-212-316-418-533-548-578-79-27-180-14-201 25-18 35-10 120 40 408 27 158 88 519 135 802 62 371 90 522 103 539 22 30 79 61 113 61 14 0 55-14 90-32zM3539 4745l3-125h-266c-243 0-266-1-274-17-5-10-150-481-323-1047-302-990-314-1028-322-980-6 39-137 1886-137 1932 0 9-171 12-820 12H581l-6-32c-3-18-113-931-245-2028S87 446 84 423l-6-43h888l195 1055c107 580 195 1051 196 1047 2-4 39-452 83-997s82-1016 86-1047l6-58h986l44 113c24 61 223 581 443 1154 263 685 401 1033 403 1015 1-15-22-517-53-1116-30-600-55-1107-55-1128v-38h836l369 2223c203 1222 371 2232 373 2245l4 22H3535z" style="fill:#31328c;fill-opacity:1" transform="matrix(.05056 0 0 -.05073 365.28 303.475)"/></svg>