<svg xmlns="http://www.w3.org/2000/svg" xmlns:xlink="http://www.w3.org/1999/xlink" width="367" height="117.17" viewBox="76.83355269641942 216.84532143272185 367 117.16555344554286"><defs><path id="a" d="m150.52 315.19-34.27-43.13 33.03-39.89h-23.27l-31.46 39.48v-39.48H76.83v83.02h17.72v-42.68l30.83 42.68h25.14Z"/><path id="b" d="M275.34 264.65c5.14 0 27.02 3.3 27.02 25.05 0 23.01-22.07 25.49-22.07 25.49h-51.62v-13.46c24.92.02 38.76.03 41.53.03 12.04 0 11.92-11.49 11.92-11.49 0-12.59-14.23-12.08-14.23-12.08h-15.9c-7.3 0-26.12-2.63-26.12-22.07 0-23.37 23.32-23.95 23.32-23.95h47.26v13.27c-23.27.03-36.21.04-38.79.04-12.54 0-12.34 9.73-12.34 9.73s.11 9.49 10.97 9.49l19.05-.05Z"/><path id="c" d="M189.68 301.68h-20.83v-23.35c15.42.01 23.98.01 25.7.01 0 0 12.98.48 12.98 11.53 0 11.03-9.73 11.81-17.85 11.81m-20.83-56.03h22.86s12.42-.56 12.42 9.76c0 8.87-7.81 9.46-10.34 9.63h-24.94v-19.39Zm33.19 69.54c12.49 0 23.83-9.14 23.83-23.19 0-16.03-11.85-21.03-11.85-21.03s9.42-3.23 8.53-17.62c-1.28-20.84-24.82-21.18-24.82-21.18h-45.65v82.98s39.45.04 49.96.04"/><path id="d" d="M442.95 274.83c-.09.01-.18-.06-.24-.18a2.68 2.68 0 0 0-.07-.27c-1.52-6.05-4.67-11.32-9.06-15.68-12.58-12.5-35.37-17.5-59.41-11.67-1.83.45-3.62.97-5.38 1.53a83.435 83.435 0 0 0-10.87 4.33c.74 1.37 1.61 2.65 2.6 3.82 7.14-3.38 15.2-5.82 23.64-6.94 5.63-.75 11.16-.84 16.44-.36 14.26 1.32 26.65 6.89 34.22 15.31 4.85 5.39 7.72 11.96 7.81 19.33 0 .2 0 .41-.01.61 0 .18 0 .36-.01.55-.03.26-.21.31-.37.3-.1-.01-.22-.08-.24-.17-.03-.19-.05-.36-.07-.54-.8-5.85-3.16-11.11-6.78-15.57-4.76-5.89-11.7-10.41-20.08-13.16-9.98-3.26-22.02-4-34.89-1.51-5.93 1.12-11.6 2.83-16.83 5.01 1.39 1.19 2.92 2.23 4.56 3.1 5.92-2.62 12.66-4.45 19.94-5.19 14.49-1.47 28.08 1.57 37.81 7.65 3.76 2.34 6.93 5.15 9.37 8.31 3.33 4.34 5.26 9.37 5.34 14.86.05 3.08-.46 6.08-1.49 8.95-.03.1-.07.2-.11.3-.08.12-.17.19-.26.16-.1-.02-.15-.15-.15-.32.02-.1.05-.2.07-.3.51-2.3.67-4.67.48-7.08-.37-4.45-1.95-8.55-4.48-12.17-.54-.78-1.13-1.53-1.76-2.26-9.35-10.88-27.9-16.59-47.4-12.95-3.69.6-7.21 1.45-10.55 2.54 3.05.67 6.28.83 9.57.4 0 0 5.31-.71 7.51-1.17.44-.07 1.12-.18 1.43-.19l.15-.01c3.14-.31 12.84-.84 22.98 2.81 0 0 11.37 3.86 16.35 12.49 0 0 1.11 1.59-.51 3.81-1.5 1.94-3.17 3.77-4.98 5.49-1.75 1.6-4.8 3.76-4.8 3.76a77.46 77.46 0 0 1-8.83 5.12c0-.01-.01-.04-.02-.05-.22.12-.46.22-.69.33.01.02.02.04.03.05.11.22.23.43.34.65.37.75.7 1.53.99 2.32-5.22 2.5-10.88 4.54-16.88 6.02-23.31 5.82-45.37 1.76-58.29-9.63-6.07-5.36-10.13-12.34-11.34-20.67l-.06-.41c0-.21.09-.25.19-.27.09-.01.17.07.23.19.02.09.05.18.07.27 1.52 6.05 4.68 11.32 9.07 15.68 12.58 12.5 35.36 17.49 59.41 11.66a82.907 82.907 0 0 0 16.24-5.86 23.17 23.17 0 0 0-2.6-3.82c-7.13 3.39-15.2 5.83-23.63 6.95-5.64.75-11.16.84-16.44.35-14.26-1.32-26.66-6.89-34.22-15.3-4.86-5.4-7.73-11.97-7.81-19.34v-.6c0-.19 0-.37.01-.55.03-.27.22-.31.37-.3.1.01.22.08.25.17.02.18.05.36.07.54.79 5.85 3.16 11.1 6.77 15.57 4.76 5.89 11.7 10.41 20.08 13.15 9.99 3.27 22.02 4.01 34.89 1.51 5.93-1.11 11.6-2.82 16.84-5-1.4-1.19-2.93-2.23-4.57-3.1-5.91 2.62-12.65 4.45-19.94 5.19-14.49 1.47-28.08-1.57-37.8-7.65-3.76-2.35-6.94-5.15-9.37-8.32-3.34-4.33-5.27-9.36-5.35-14.86-.05-3.07.47-6.07 1.49-8.94.04-.11.08-.2.11-.3.08-.12.18-.19.26-.17.1.03.16.16.15.33-.02.1-.05.2-.07.29-.5 2.31-.67 4.67-.48 7.08.37 4.46 1.95 8.56 4.49 12.18.54.77 1.12 1.52 1.75 2.26 9.35 10.88 27.9 16.58 47.4 12.94 3.69-.59 7.22-1.45 10.56-2.53-3.06-.67-6.29-.83-9.57-.4 0 0-5.32.7-7.51 1.17-.44.07-1.12.17-1.43.18-.02.01-.14.02-.15.02-3.15.3-12.84.84-22.98-2.81 0 0-11.38-3.86-16.36-12.5 0 0-1.11-1.59.51-3.8 1.51-1.94 3.18-3.77 4.98-5.49 1.76-1.6 4.8-3.76 4.8-3.76 2.76-1.86 5.72-3.57 8.83-5.12 0 .01.02.04.02.05.23-.12.46-.23.69-.34-.01-.01-.01-.03-.02-.05-.12-.21-.24-.42-.34-.64-.38-.75-.7-1.53-1-2.32 5.22-2.5 10.88-4.54 16.89-6.02 23.31-5.83 45.37-1.76 58.28 9.63 6.08 5.36 10.14 12.33 11.34 20.67l.06.41c.01.21-.09.25-.18.26m-27.31 34.47a99.802 99.802 0 0 1-17.46 6.04c-19.84 4.93-37.67 2.51-50.49-4.83-8.9-5.1-15.4-12.57-18.49-21.6-.04-.12-.09-.24-.13-.37 0-.01 0-.02-.01-.04-.13-.44.03-.61.2-.63.08-.01.18.04.25.14.04.1.08.21.13.31 2.8 6.75 7.57 12.53 13.84 16.97 13.08 9.25 32.71 12.65 54.76 6.9 6.05-1.65 11.82-3.8 17.2-6.34.03.23.07.45.09.68.09.93.13 1.85.11 2.77m-2.49 9.95c-4.75 2.21-10.05 3.94-15.93 5.08-8.87 1.78-17.46 2.07-25.38 1.02-17.45-2.31-31.63-11.06-38.34-24.4-.05-.11-.11-.22-.17-.34-.06-.16-.01-.27.08-.33.11-.07.29-.03.43.14.07.11.14.22.2.33 5.48 8.6 14.25 15.13 24.98 18.92 10.84 3.82 23.68 4.85 37.2 2.39 6.81-1.19 12.86-3.17 18.17-5.79-.35 1.01-.76 2.01-1.24 2.98m-57.98-77.69a99.43 99.43 0 0 1 17.45-6.05c19.85-4.92 37.67-2.5 50.5 4.84 8.9 5.1 15.4 12.57 18.49 21.59.04.13.09.25.13.37v.04c.14.45-.03.62-.19.64-.08.01-.19-.04-.26-.15l-.12-.3c-2.8-6.76-7.57-12.53-13.84-16.97-13.08-9.25-32.71-12.65-54.76-6.91-6.05 1.66-11.83 3.8-17.21 6.35-.02-.23-.06-.46-.09-.68-.09-.93-.12-1.85-.1-2.77m2.49-9.96c4.74-2.21 10.05-3.94 15.93-5.08 8.86-1.78 17.46-2.06 25.37-1.01 17.45 2.31 31.64 11.06 38.34 24.4.06.11.12.22.17.33.06.16.01.28-.07.34-.11.07-.3.02-.44-.15-.06-.11-.13-.22-.2-.33-5.48-8.6-14.24-15.13-24.98-18.91-10.84-3.83-23.68-4.86-37.2-2.4-6.81 1.19-12.86 3.18-18.16 5.8.34-1.02.75-2.02 1.24-2.99m86.11 42.04a54.99 54.99 0 0 0-.65-6.81c0-.03-.01-.05-.01-.08-.39-2.45-.95-4.92-1.68-7.39-1.42-4.79-3.49-9.56-6.23-14.16-7.74-13.01-19.24-21.96-31.2-25.63v.01s-27.32-9.1-42.07 5.89c-.26.29-.52.58-.78.88-9.52 3.37-17.7 9.07-23.61 16.29-4.56 5.57-7.77 12.06-9.21 19.09-.12.59-.45 2.33-.47 2.49-1.1 6.65-.83 12.13-.83 12.13s0 .01.01.01c-.01.2-.01.4-.01.6.13 4.76.9 9.66 2.35 14.54 1.42 4.79 3.48 9.56 6.22 14.16 7.74 13.01 19.25 21.96 31.21 25.62h-.01s27.32 9.09 42.07-5.9c.27-.28.53-.57.78-.87 9.53-3.37 17.71-9.07 23.61-16.29 2.73-3.34 4.98-7 6.65-10.91 3.66-8.28 4.13-17.38 3.86-23.67"/></defs><use xlink:href="#a" fill="#1d1b54"/><use xlink:href="#a" fill-opacity="0" stroke="#000" stroke-opacity="0"/><use xlink:href="#b" fill="#1d1b54"/><use xlink:href="#b" fill-opacity="0" stroke="#000" stroke-opacity="0"/><use xlink:href="#c" fill="#1d1b54"/><use xlink:href="#c" fill-opacity="0" stroke="#000" stroke-opacity="0"/><use xlink:href="#d" fill="#2f97da"/><use xlink:href="#d" fill-opacity="0" stroke="#000" stroke-opacity="0"/></svg>