<svg xmlns="http://www.w3.org/2000/svg" xml:space="preserve" id="레이어_1" x="0px" y="0px" style="enable-background:new 0 0 1010 733.2" version="1.1" viewBox="0 0 1010 733.2"><style>.st2{fill:#1474b3}</style><path d="m159.4 527.2 8.1-27.6c1.2-4.1 5.5-7.4 9.6-7.4h157.7l23-78H162.3c-38.1 0-78 30.9-89.2 68.9l-15.4 52.1c-12.6 42.8 11.8 77.5 54.6 77.5h104.6c4.1 0 6.5 3.3 5.2 7.4l-8.1 27.6c-1.2 4.1-5.5 7.4-9.6 7.4H23l-23 78h219.3c38.1 0 78-30.9 89.2-68.9l15.4-52.1c12.6-42.8-11.8-77.5-54.6-77.5H164.7c-4.1.1-6.5-3.3-5.3-7.4z" style="fill:#e51718"/><path d="M619.8 414.2h-95l45.7-154.9c-21.4 14.2-44.1 28.1-67.8 41.3-17.4 9.7-34.7 18.7-51.7 26.9L331.3 733.2h203c38.1 0 78-30.9 89.2-68.9l50.9-172.6c12.7-42.9-11.8-77.5-54.6-77.5zM529 647.7c-1.2 4.1-5.5 7.4-9.6 7.4h-65.7l48.1-163h65.7c4.1 0 6.5 3.3 5.2 7.4L529 647.7z" style="fill:#157f3b"/><path d="m811.4 527.2 8.1-27.6c1.2-4.1 5.5-7.4 9.6-7.4h157.7l23-78H814.3c-38.1 0-78 30.9-89.2 68.9l-15.4 52.1c-12.6 42.8 11.8 77.5 54.6 77.5h104.6c4.1 0 6.5 3.3 5.2 7.4l-8.1 27.6c-1.2 4.1-5.5 7.4-9.6 7.4H675l-23 78h219.3c38.1 0 78-30.9 89.2-68.9l15.4-52.1c12.6-42.8-11.8-77.5-54.6-77.5H816.7c-4.1.1-6.5-3.3-5.3-7.4zM757.3 31.2C735.6-27.2 586.5-1.3 424.3 89S148 300 169.7 358.4c19.3 52.1 140.2 37.1 281.3-31l27.4-92.7h127.4C710.1 158.1 774 76.2 757.3 31.2z" class="st2"/></svg>